<svg fill="none" height="24" viewBox="0 0 25 24" width="25" xmlns="http://www.w3.org/2000/svg"><path clip-rule="evenodd" d="m8.1009 2.25h.23211c.41421 0 .75.33579.75.75s-.33579.75-.75.75h-.2c-.85246 0-1.44669.00058-1.90932.03838-.45388.03709-.71464.10622-.91216.20686-.42337.21571-.76757.55992-.98329.98328-.10064.19752-.16977.45828-.20685.91216-.0378.46263-.03838 1.05687-.03838 1.90932v.2c0 .41421-.33579.75-.75.75-.41422 0-.75-.33579-.75-.75v-.2321c-.00001-.81284-.00002-1.46846.04336-1.99937.04466-.54663.13902-1.02678.36536-1.47099.35953-.70561.93321-1.27929 1.63881-1.63881.44422-.22634.92436-.3207 1.471-.36537.53091-.04337 1.18652-.04337 1.99936-.04336zm10.3414 1.53838c-.4626-.0378-1.0568-.03838-1.9093-.03838h-.2c-.4142 0-.75-.33579-.75-.75s.3358-.75.75-.75h.2321c.8129-.00001 1.4685-.00001 1.9994.04336.5466.04467 1.0268.13903 1.471.36537.7056.35952 1.2793.9332 1.6388 1.63881.2263.44421.3207.92436.3653 1.47099.0434.53091.0434 1.18652.0434 1.99935v.23212c0 .41421-.3358.75-.75.75s-.75-.33579-.75-.75v-.2c0-.85245-.0006-1.44669-.0384-1.90932-.0371-.45388-.1062-.71464-.2068-.91216-.2157-.42336-.5599-.76757-.9833-.98328-.1975-.10064-.4583-.16977-.9122-.20686zm-10.60929 3.46162c.41421 0 .75.33579.75.75v1.5c0 .41421-.33579.75-.75.75-.41422 0-.75-.33579-.75-.75v-1.5c0-.41421.33578-.75.75-.75zm4.99999 0c.4142 0 .75.33579.75.75v3.1001c0 1.2142-1.0358 2.25-2.25 2.25-.4142 0-.75-.3358-.75-.75s.3358-.75.75-.75c.3858 0 .75-.3642.75-.75v-3.1001c0-.41421.3358-.75.75-.75zm4 0c.4142 0 .75.33579.75.75v1.5c0 .41421-.3358.75-.75.75s-.75-.33579-.75-.75v-1.5c0-.41421.3358-.75.75-.75zm-8.33013 7.4196c.2929-.2929.76777-.2929 1.06066 0 1.50707 1.5071 3.93227 1.5071 5.43937 0 .2929-.2929.7677-.2929 1.0606 0s.2929.7678 0 1.0607c-2.0929 2.0929-5.4677 2.0929-7.56063 0-.29289-.2929-.29289-.7678 0-1.0607zm-5.16986.5804c.41421 0 .75.3358.75.75v.2c0 .8525.00058 1.4467.03838 1.9093.03708.4539.10621.7147.20685.9122.21572.4233.55993.7675.98329.9833.19752.1006.45828.1697.91216.2068.46263.0378 1.05686.0384 1.90932.0384h.2c.41421 0 .75.3358.75.75s-.33579.75-.75.75h-.23213c-.81283 0-1.46843 0-1.99934-.0434-.54664-.0446-1.02678-.139-1.471-.3653-.7056-.3596-1.27928-.9332-1.63881-1.6388-.22634-.4443-.3207-.9244-.36536-1.471-.04338-.5309-.04337-1.1866-.04336-1.9994v-.2321c0-.4142.33578-.75.75-.75zm17.99999 0c.4142 0 .75.3358.75.75v.2321c0 .8129 0 1.4685-.0434 1.9994-.0446.5466-.139 1.0267-.3653 1.471-.3595.7056-.9332 1.2792-1.6388 1.6388-.4442.2263-.9244.3207-1.471.3653-.5309.0434-1.1865.0434-1.9994.0434h-.2321c-.4142 0-.75-.3358-.75-.75s.3358-.75.75-.75h.2c.8525 0 1.4467-.0006 1.9093-.0384.4539-.0371.7147-.1062.9122-.2068.4234-.2158.7676-.56.9833-.9833.1006-.1975.1697-.4583.2068-.9122.0378-.4626.0384-1.0568.0384-1.9093v-.2c0-.4142.3358-.75.75-.75z" fill="#000" fill-rule="evenodd"/></svg>